<?xml version="1.0" encoding="UTF-8"?>
<svg width="21px" height="17px" viewBox="0 0 21 17" version="1.1" xmlns="http://www.w3.org/2000/svg" xmlns:xlink="http://www.w3.org/1999/xlink">
    <!-- Generator: Sketch 44.1 (41455) - http://www.bohemiancoding.com/sketch -->
    <title></title>
    <desc>Created with Sketch.</desc>
    <defs></defs>
    <g id="切图" stroke="none" stroke-width="1" fill="none" fill-rule="evenodd">
        <g transform="translate(-468.000000, -514.000000)" id="icon_1_wechat" fill="#02BB00">
            <g transform="translate(468.000000, 514.000000)">
                <path d="M17,11 C16.4444444,11 16,10.5555556 16,10 C16,9.44444444 16.4444444,9 17,9 C17.5555556,9 18,9.44444444 18,10 C18,10.5277778 17.5555556,11 17,11 M12,11 C11.4444444,11 11,10.5555556 11,10 C11,9.44444444 11.4444444,9 12,9 C12.5555556,9 13,9.44444444 13,10 C13,10.5277778 12.5555556,11 12,11 M18.7527881,15.1010526 C20.1301115,14.1515789 21,12.7389474 21,11.1873684 C21,8.31578947 18.1003717,6 14.5,6 C10.8996283,6 8,8.31578947 8,11.1873684 C8,14.0589474 10.8996283,16.3747368 14.5,16.3747368 C15.2490706,16.3747368 15.9498141,16.2821053 16.6263941,16.0968421 C16.6747212,16.0736842 16.7472119,16.0736842 16.8197026,16.0736842 C16.9405204,16.0736842 17.0613383,16.12 17.1579926,16.1663158 L18.5836431,16.9536842 C18.6319703,16.9768421 18.6561338,17 18.704461,17 C18.8252788,17 18.9219331,16.9073684 18.9219331,16.7915789 C18.9219331,16.7452632 18.8977695,16.6989474 18.8977695,16.6294737 C18.8977695,16.6063158 18.704461,15.9810526 18.6078067,15.5873684 C18.5836431,15.5410526 18.5836431,15.4947368 18.5836431,15.4484211 C18.5594796,15.2863158 18.6319703,15.1705263 18.7527881,15.1010526" id="Shape-Copy"></path>
                <path d="M10,5.12844037 C9.45547362,5.12844037 9.02439024,4.70684873 9.02439024,4.17431193 C9.02439024,3.64177512 9.45547362,3.22018349 10,3.22018349 C10.5445264,3.22018349 10.9756098,3.64177512 10.9756098,4.17431193 C10.9756098,4.6846597 10.5445264,5.12844037 10,5.12844037 M5,5.12844037 C4.45547362,5.12844037 4.02439024,4.70684873 4.02439024,4.17431193 C4.02439024,3.64177512 4.45547362,3.22018349 5,3.22018349 C5.54452638,3.22018349 5.97560976,3.64177512 5.97560976,4.17431193 C5.97560976,4.6846597 5.54452638,5.12844037 5,5.12844037 M0,6.13508772 C0,7.98245614 1.00624025,9.64736842 2.62090484,10.7649123 C2.73790952,10.8561404 2.83151326,10.9929825 2.83151326,11.1754386 C2.83151326,11.2210526 2.80811232,11.2894737 2.80811232,11.3350877 C2.69110764,11.7912281 2.48049922,12.5438596 2.45709828,12.5666667 C2.43369735,12.6350877 2.41029641,12.6807018 2.41029641,12.7491228 C2.41029641,12.8859649 2.52730109,13 2.66770671,13 C2.71450858,13 2.76131045,12.977193 2.80811232,12.954386 L4.46957878,12.0192982 C4.58658346,11.9508772 4.72698908,11.9052632 4.8673947,11.9052632 C4.9375975,11.9052632 5.00780031,11.9052632 5.07800312,11.9280702 C5.85023401,12.1333333 6.69266771,12.2701754 7.5351014,12.2701754 L7.95631825,12.2701754 C7.7925117,11.7912281 7.69890796,11.2894737 7.69890796,10.7649123 C7.69890796,7.68596491 10.7878315,5.17719298 14.5787832,5.17719298 L15,5.17719298 C14.4617785,2.23508772 11.326053,0 7.55850234,0 C3.39313573,0 0,2.73684211 0,6.13508772 Z" id="Shape-Copy-2"></path>
            </g>
        </g>
    </g>
</svg>